Coordinates
version=1
nRows=21
nColumns=22
inDegrees=yes

Units are S.I. units (second, meters, Newtons, ...)
If the header above contains a line with 'inDegrees', this indicates whether rotational values are in degrees (yes) or radians (no).

endheader
time	pelvis_tilt	pelvis_list	pelvis_rotation	pelvis_tx	pelvis_ty	pelvis_tz	hip_flexion_r	hip_adduction_r	hip_rotation_r	knee_angle_r	ankle_angle_r	subtalar_angle_r	hip_flexion_l	hip_adduction_l	hip_rotation_l	knee_angle_l	ankle_angle_l	subtalar_angle_l	lumbar_extension	lumbar_bending	lumbar_rotation
      3.41000000	     -2.38771749	     -3.34338875	    -45.50803588	      0.84566600	      0.89356281	      0.83220799	      3.16544875	     -1.07514319	      7.46534013	    -53.23145657	     -5.56408319	      2.61764884	     29.50263923	    -13.83551285	     -8.94130379	    -16.19147447	    -20.27294089	     20.51248654	     -0.71919233	      7.07544115	     23.71808899
      3.42000000	     -2.24254512	     -3.48134416	    -45.45226432	      0.86339912	      0.88979314	      0.84055284	      3.45852519	     -1.70424678	      6.72811941	    -55.05115381	     -4.55488894	      1.79089980	     29.30504176	    -13.58203855	     -8.91591353	    -15.47127988	    -20.82709825	     20.54206374	     -0.62794178	      6.91702817	     23.26177859
      3.43000000	     -1.98548748	     -3.67730929	    -45.36266093	      0.88096886	      0.88516467	      0.84872946	      3.74306727	     -2.41332128	      5.90636110	    -56.99833155	     -3.16721392	      0.88269330	     29.10515086	    -13.28021639	     -8.68356741	    -15.55064900	    -20.79320867	     20.19371096	     -0.71089855	      6.70407702	     22.79646376
      3.44000000	     -1.62848106	     -3.95430675	    -45.23648160	      0.89828034	      0.87973735	      0.85676303	      4.00005119	     -3.14067626	      5.06793076	    -59.04843051	     -1.51454643	     -0.05924589	     28.90471501	    -12.95714676	     -8.21179234	    -16.40951558	    -19.97027874	     19.40792914	     -0.97957733	      6.45967355	     22.31643925
      3.45000000	     -1.18246332	     -4.30761813	    -45.08665562	      0.91519523	      0.87358588	      0.86464420	      4.25167436	     -3.83705413	      4.30522700	    -61.20103212	      0.29789365	     -0.94105167	     28.70812014	    -12.61451564	     -7.46293265	    -17.97718225	    -18.23424356	     18.16092659	     -1.43271272	      6.18576308	     21.83792317
      3.46000000	     -0.64772779	     -4.72895502	    -44.91076533	      0.93160520	      0.86682166	      0.87234228	      4.51443833	     -4.47485506	      3.66251171	    -63.44970254	      2.17190517	     -1.69562316	     28.54257448	    -12.24349033	     -6.51226794	    -20.21335601	    -15.51827735	     16.50735547	     -2.07180940	      5.87520075	     21.35532175
      3.47000000	     -0.02853672	     -5.19061793	    -44.70198505	      0.94739394	      0.85958429	      0.87979973	      4.82796340	     -5.04550327	      3.15925860	    -65.78812590	      4.03270967	     -2.25797351	     28.45453557	    -11.82350235	     -5.47249313	    -23.05428884	    -11.94059839	     14.58573497	     -2.88136045	      5.51000717	     20.86700299
      3.48000000	      0.66180521	     -5.66073573	    -44.45673068	      0.96242970	      0.85206968	      0.88696682	      5.24276550	     -5.53507619	      2.80820538	    -68.20064376	      5.83114030	     -2.61278488	     28.48011877	    -11.34248993	     -4.45748979	    -26.38832956	     -7.79477721	     12.59482228	     -3.83544686	      5.07710208	     20.36209988
      3.49000000	      1.44142100	     -6.08913061	    -44.20166133	      0.97657796	      0.84453744	      0.89382973	      5.80247759	     -5.98530908	      2.62438855	    -70.66747442	      7.58101236	     -2.79447648	     28.61568319	    -10.79055356	     -3.67921184	    -30.07782551	     -3.51692371	     10.71412360	     -4.92018128	      4.52551803	     19.87199084
      3.50000000	      2.28646509	     -6.43867402	    -43.93357663	      0.98975515	      0.83725464	      0.90035511	      6.56207929	     -6.40140213	      2.57969808	    -73.14888739	      9.19812820	     -2.84008624	     28.83006258	    -10.16478653	     -3.14260392	    -33.89207169	      0.55862989	      9.07353772	     -6.08788802	      3.84513479	     19.42420864
      3.51000000	      3.13494055	     -6.70778110	    -43.64817683	      1.00194561	      0.83047524	      0.90653835	      7.54677711	     -6.74137823	      2.62423067	    -75.56686573	     10.72280140	     -2.78324250	     29.11189301	     -9.52955610	     -2.85241164	    -37.65357060	      4.15032082	      7.78783244	     -7.27771430	      3.09914953	     18.96680805
      3.52000000	      3.90584438	     -6.83379556	    -43.37045288	      1.01315836	      0.82429640	      0.91240206	      8.86629386	     -7.01114628	      2.73121185	    -77.88780483	     12.13315117	     -2.69838278	     29.46985182	     -8.90620477	     -2.75849429	    -41.15960796	      7.15847032	      7.02713897	     -8.35695184	      2.30441670	     18.53259397
      3.53000000	      4.58499703	     -6.91054430	    -43.11280577	      1.02349978	      0.81904453	      0.91798633	     10.40772655	     -7.13661332	      2.87040870	    -80.00172528	     13.34722187	     -2.58079360	     29.75246124	     -8.37416951	     -2.80842337	    -44.24788759	      9.67880449	      6.44137783	     -9.35974266	      1.55973651	     18.16523948
      3.54000000	      5.11777142	     -6.93915646	    -42.89239814	      1.03308381	      0.81473563	      0.92330208	     12.17899379	     -7.11775329	      2.99047953	    -81.85850874	     14.38877239	     -2.44637034	     29.96196375	     -7.96142905	     -2.94814315	    -46.85448473	     11.75794660	      6.08299256	    -10.21162133	      0.91819777	     17.88252431
      3.55000000	      5.49535256	     -6.95014055	    -42.72833493	      1.04203529	      0.81140094	      0.92838245	     14.11637794	     -6.96439004	      3.05714162	    -83.40203968	     15.27404864	     -2.31618826	     30.06012439	     -7.68519604	     -3.14524601	    -48.96072893	     13.48812208	      5.90641397	    -10.89960698	      0.41326321	     17.70630595
      3.56000000	      5.71482709	     -6.95402976	    -42.61349444	      1.05046172	      0.80899998	      0.93321318	     16.17084610	     -6.69516723	      3.04135371	    -84.60023952	     15.96756742	     -2.18291512	     30.04796308	     -7.53168439	     -3.37275304	    -50.58079691	     14.95861979	      5.80698761	    -11.41225446	      0.06406895	     17.57533684
      3.57000000	      5.81030934	     -6.96777549	    -42.52593448	      1.05847837	      0.80751911	      0.93779148	     18.24514404	     -6.37127010	      2.89283284	    -85.41707224	     16.52457079	     -2.07937049	     29.90384402	     -7.45879432	     -3.57993112	    -51.75294924	     16.22312900	      5.75554719	    -11.78089935	     -0.13967326	     17.47477740
      3.58000000	      5.80622527	     -6.98579916	    -42.43717446	      1.06614250	      0.80689645	      0.94211650	     20.27967302	     -6.05149083	      2.57877572	    -85.83959989	     16.98463095	     -2.04159446	     29.64910555	     -7.42441060	     -3.74076019	    -52.53359551	     17.29370685	      5.71829857	    -12.02650957	     -0.22323258	     17.36504186
      3.59000000	      5.72291401	     -7.00145619	    -42.31146224	      1.07349157	      0.80707738	      0.94621218	     22.22001736	     -5.77608740	      2.08088100	    -85.85903008	     17.36565659	     -2.09716022	     29.30724354	     -7.39077982	     -3.81452072	    -52.97383548	     18.18228251	      5.67170978	    -12.17103083	     -0.21156414	     17.17517112
      3.60000000	      5.57706827	     -7.01487173	    -42.13144788	      1.08054075	      0.80799957	      0.95011393	     24.02202401	     -5.56208744	      1.41046972	    -85.48084508	     17.67186782	     -2.30810016	     28.89900197	     -7.34437769	     -3.78890484	    -53.12777799	     18.90424914	      5.60213978	    -12.24100486	     -0.12159945	     16.88902514
      3.61000000	      5.38840196	     -7.02598873	    -41.87832307	      1.08729706	      0.80961243	      0.95387888	     25.64196313	     -5.41699710	      0.58455057	    -84.71460243	     17.95452138	     -2.67160737	     28.42979615	     -7.27821664	     -3.66121020	    -53.03016964	     19.44500742	      5.53146032	    -12.26432403	      0.02303662	     16.48437472
